<svg width="691" height="78" viewBox="0 0 691 78" fill="none" xmlns="http://www.w3.org/2000/svg">
<path d="M115.375 0.378418H130.474V29.3195H131.103C133.618 26.3785 138.439 23.4588 145.568 23.4588C156.789 23.4588 167.487 30.5928 167.487 50.0982C167.487 69.3905 157.103 76.9401 145.568 76.9401C136.447 76.9401 131.939 72.8536 129.526 70.2323H128.897L126.697 75.8905H115.375V0.378418ZM130.474 61.7183C131.628 63.125 133.085 64.2518 134.737 65.014C136.389 65.7762 138.192 66.1541 140.011 66.1192C147.039 66.1192 152.073 62.347 152.073 50.0769C152.073 37.7056 146.746 34.2424 140.011 34.2424C136.447 34.2424 132.781 36.1339 130.474 38.7552V61.7183Z" fill="white"/>
<path d="M171.995 43.3684C171.784 42.1203 171.679 40.8567 171.68 39.591C171.68 29.7344 179.139 23.4421 195.373 23.4421C213.621 23.4421 218.544 32.4623 218.544 42.0898V62.9591C218.544 65.0529 219.386 65.8947 220.851 65.8947C221.743 65.9092 222.63 65.7667 223.473 65.4738L224.101 75.5382C221.315 76.4135 218.417 76.8784 215.497 76.9181C207.841 76.9181 206.162 72.6185 205.955 68.7398H205.326C203.541 70.839 197.249 76.9181 186.146 76.9181C176.081 76.9181 169.475 72.4107 169.475 63.0656C169.475 52.266 178.074 45.9791 203.765 45.4516V41.3651C203.765 36.8524 200.93 33.709 194.644 33.709C188.357 33.709 185.309 35.7016 185.309 40.1024C185.337 40.9082 185.406 41.712 185.517 42.5106L171.995 43.3684ZM191.074 66.5394C193.466 66.5137 195.827 65.9979 198.012 65.0238C200.196 64.0497 202.158 62.638 203.776 60.8758V53.3262C188.362 53.6406 184.062 56.7894 184.062 61.1902C184.062 64.9677 186.566 66.5394 191.074 66.5394Z" fill="white"/>
<path d="M277.055 75.8692H265.627L263.528 70.211H262.915C260.501 72.8323 255.887 76.9188 246.873 76.9188C235.338 76.9188 224.959 69.3692 224.959 50.0769C224.959 30.5769 235.652 23.4375 246.873 23.4375C254.001 23.4375 258.823 26.3732 261.343 29.2982H261.972V0.378418H277.071L277.055 75.8692ZM261.956 38.7552C259.649 36.1339 255.871 34.2424 252.307 34.2424C245.706 34.2424 240.357 37.7056 240.357 50.0769C240.357 62.3311 245.386 66.1192 252.307 66.1192C256.713 66.1192 260.07 64.1265 261.956 61.7183V38.7552Z" fill="white"/>
<path d="M309.268 23.4421C324.996 23.4421 333.909 31.727 333.909 43.2619C333.852 46.174 333.629 49.0806 333.243 51.9676H297.067C297.067 62.1386 301.366 66.4382 309.023 66.4382C316.886 66.4382 319.193 62.4529 319.193 59.5119V58.148L333.243 58.4623C333.359 59.0868 333.429 59.719 333.451 60.3537C333.451 66.2144 330.1 76.9181 308.943 76.9181C291.435 76.9181 282.415 67.1681 282.415 50.1828C282.399 35.1901 290.577 23.4421 309.268 23.4421ZM319.923 43.3684C320 42.918 320.034 42.4613 320.025 42.0045C320.025 36.2344 315.096 33.2987 309.332 33.2987C302.618 33.2987 298.111 36.3409 297.482 43.3684H319.923Z" fill="white"/>
<path d="M339.333 24.4917H350.447L352.338 32.0413H353.175C355.588 28.477 359.883 23.4421 369.111 23.4421C376.452 23.4421 382.324 26.5909 385.366 32.6701H386.096C388.93 28.2692 393.123 23.4421 402.767 23.4421C414.302 23.4421 421.851 29.8356 421.851 44.0983V75.8685H406.651V45.4623C406.651 36.4475 403.188 34.2418 397.945 34.2418C395.735 34.1848 393.567 34.8507 391.769 36.1383C389.972 37.4259 388.644 39.2648 387.987 41.3758V75.8685H372.888V44.5086C372.888 37.4864 370.368 34.2311 364.603 34.2311C359.675 34.2311 356.739 37.1668 354.432 40.4221V75.8579H339.333V24.4917Z" fill="white"/>
<path d="M499.015 23.2931C488.956 23.2931 484.406 28.0616 481.544 32.3985H480.91C478.156 26.5751 472.86 23.2931 465.992 23.2931C456.674 23.2931 452.332 28.1628 450.009 31.3435H449.268L447.888 24.3534H442.598V76.2363H450.009V37.5825C453.712 32.9259 457.42 29.5374 464.303 29.5374C472.135 29.5374 475.95 33.8796 475.95 43.2993V76.231H483.361V39.3887C484.427 34.8333 489.078 29.5427 497.129 29.5427C504.327 29.5427 509.516 32.2067 509.516 44.7912V76.2257H516.927V43.8374C516.911 29.1165 510.027 23.2931 499.015 23.2931Z" fill="white"/>
<path d="M547.424 23.2931C532.176 23.2931 524.658 34.7321 524.658 50.0817C524.658 67.4506 532.709 77.2966 547.424 77.2966C565.539 77.2966 568.203 65.0105 568.203 60.4605C568.214 59.9645 568.178 59.4686 568.096 58.9793L560.787 58.5531C560.865 59.1858 560.9 59.823 560.893 60.4605C560.893 64.0621 558.352 71.047 547.446 71.047C536.646 71.047 531.995 63.7424 531.995 50.4014H568.31C568.611 47.8357 568.753 45.2539 568.736 42.6706C568.693 31.7645 560.435 23.2931 547.424 23.2931ZM560.978 44.578H532.282C533.023 35.153 538.532 29.5427 547.424 29.5427C553.988 29.5427 561.085 33.5653 561.085 42.6706C561.084 43.3084 561.043 43.9455 560.962 44.578H560.978Z" fill="white"/>
<path d="M610.517 28.8026H610.096C607.342 26.1386 602.579 23.2935 595.061 23.2935C582.674 23.2935 574.096 32.1911 574.096 50.1887C574.096 67.7707 582.354 77.2969 595.061 77.2969C603.639 77.2969 607.848 73.8019 610.309 71.4736H610.943L612.211 76.2367H617.933V0H610.517V28.8026ZM610.517 65.3305C607.976 68.2982 603.639 71.0473 597.496 71.0473C587.65 71.0473 581.72 65.8633 581.72 50.0821C581.72 34.3009 588.284 29.5431 597.496 29.5431C602.259 29.5431 607.027 31.7649 610.517 35.1534V65.3305Z" fill="white"/>
<path d="M636.565 4.12915H629.154V14.2948H636.565V4.12915Z" fill="white"/>
<path d="M636.565 24.3539H629.154V76.2368H636.565V24.3539Z" fill="white"/>
<path d="M690.574 69.992C689.622 70.3389 688.619 70.5191 687.606 70.5248C686.231 70.5248 685.384 69.992 685.384 68.5109V40.9764C685.384 31.9776 681.362 23.2931 665.794 23.2931C652.559 23.2931 646.203 29.5427 646.203 39.069C646.203 40.3876 646.346 41.7024 646.629 42.9903L654.04 41.717C653.853 40.5966 653.748 39.4641 653.726 38.3284C653.726 31.871 657.956 29.5427 665.794 29.5427C674.159 29.5427 677.968 34.1993 677.968 39.6018V46.5866C654.04 46.5866 644.509 53.0494 644.509 62.8953C644.509 73.0609 651.078 77.2806 659.864 77.2806C668.548 77.2806 675.847 71.4572 677.654 69.3367H678.186C678.4 73.7855 679.785 77.2806 685.39 77.2806C687.305 77.2341 689.201 76.8741 691 76.215L690.574 69.992ZM677.957 62.8953C674.041 67.5572 667.584 71.047 660.908 71.047C655.506 71.047 652.224 67.9781 652.224 62.6822C652.224 56.6457 658.26 52.2022 677.952 52.2022L677.957 62.8953Z" fill="white"/>
<path d="M76.2203 62.5179C76.2213 65.334 75.3872 68.0871 73.8233 70.4291C72.2594 72.771 70.0361 74.5965 67.4345 75.6747C64.833 76.7528 61.9702 77.0352 59.2081 76.4861C56.4461 75.9369 53.909 74.581 51.9177 72.5897C49.9264 70.5984 48.5705 68.0613 48.0213 65.2993C47.4722 62.5372 47.7546 59.6744 48.8327 57.0729C49.9109 54.4713 51.7364 52.248 54.0783 50.6841C56.4203 49.1203 59.1734 48.2861 61.9895 48.2871C65.7637 48.2871 69.3834 49.7865 72.0522 52.4552C74.721 55.124 76.2203 58.7437 76.2203 62.5179Z" fill="white"/>
<path d="M57.2588 0.474499C52.1968 0.474499 47.342 2.485 43.7621 6.06388C40.1822 9.64277 38.1704 14.497 38.169 19.559C38.1767 15.1297 36.6371 10.8368 33.8161 7.42206C33.6243 7.18231 33.4218 6.9532 33.214 6.72943C32.3939 5.82298 31.4875 4.99859 30.5075 4.26795C30.2624 4.08147 30.012 3.90565 29.7616 3.73516C26.6161 1.60616 22.904 0.470264 19.1058 0.474499H0V76.8231H19.0898C24.0968 76.7394 28.8705 74.6917 32.3817 71.1212C35.893 67.5508 37.8607 62.7436 37.8607 57.7359C37.8607 52.7282 35.893 47.9211 32.3817 44.3506C28.8705 40.7802 24.0968 38.7324 19.0898 38.6488H76.3486V19.559C76.3486 17.0523 75.8548 14.5702 74.8954 12.2544C73.9359 9.93865 72.5297 7.83455 70.757 6.06232C68.9843 4.2901 66.8798 2.88446 64.5637 1.92568C62.2477 0.966913 59.7654 0.473799 57.2588 0.474499Z" fill="white"/>
</svg>
