<svg width="376" height="43" viewBox="0 0 376 43" fill="none" xmlns="http://www.w3.org/2000/svg">
<path d="M62.7354 0.205811H70.9455V15.9425H71.2874C72.6548 14.3433 75.2766 12.7558 79.1529 12.7558C85.254 12.7558 91.0713 16.6349 91.0713 27.241C91.0713 37.7311 85.4249 41.8362 79.1529 41.8362C74.1931 41.8362 71.7422 39.6142 70.4299 38.1889H70.088L68.8916 41.2655H62.7354V0.205811ZM70.9455 33.5594C71.5729 34.3242 72.3654 34.9369 73.2636 35.3514C74.1618 35.7659 75.1422 35.9713 76.1313 35.9524C79.9524 35.9524 82.6901 33.9013 82.6901 27.2294C82.6901 20.5025 79.7931 18.6194 76.1313 18.6194C74.1931 18.6194 72.2 19.6478 70.9455 21.0732V33.5594Z" fill="white"/>
<path d="M93.5221 23.5815C93.4077 22.9028 93.3505 22.2158 93.3512 21.5275C93.3512 16.168 97.407 12.7466 106.234 12.7466C116.157 12.7466 118.834 17.6513 118.834 22.8862V34.2339C118.834 35.3724 119.291 35.8302 120.088 35.8302C120.573 35.838 121.055 35.7605 121.513 35.6013L121.855 41.0738C120.34 41.5498 118.764 41.8025 117.176 41.8242C113.013 41.8242 112.101 39.4862 111.988 37.3772H111.646C110.675 38.5186 107.254 41.8242 101.217 41.8242C95.7441 41.8242 92.1518 39.3733 92.1518 34.2919C92.1518 28.4196 96.8276 25.0011 110.797 24.7143V22.4922C110.797 20.0384 109.256 18.3292 105.837 18.3292C102.419 18.3292 100.762 19.4127 100.762 21.8056C100.777 22.2438 100.815 22.6808 100.875 23.1151L93.5221 23.5815ZM103.896 36.1807C105.197 36.1668 106.481 35.8863 107.669 35.3566C108.857 34.8269 109.923 34.0593 110.803 33.1012V28.9961C102.422 29.167 100.084 30.8791 100.084 33.2721C100.084 35.3261 101.446 36.1807 103.896 36.1807Z" fill="white"/>
<path d="M150.649 41.2539H144.435L143.293 38.1773H142.96C141.648 39.6026 139.139 41.8247 134.237 41.8247C127.965 41.8247 122.322 37.7196 122.322 27.2294C122.322 16.6262 128.136 12.7442 134.237 12.7442C138.113 12.7442 140.735 14.3405 142.105 15.9309H142.447V0.205811H150.657L150.649 41.2539ZM142.439 21.0732C141.184 19.6478 139.13 18.6194 137.192 18.6194C133.603 18.6194 130.694 20.5025 130.694 27.2294C130.694 33.8926 133.429 35.9524 137.192 35.9524C139.588 35.9524 141.413 34.8689 142.439 33.5594V21.0732Z" fill="white"/>
<path d="M168.164 12.7466C176.716 12.7466 181.563 17.2515 181.563 23.5236C181.532 25.107 181.411 26.6875 181.201 28.2573H161.53C161.53 33.7878 163.868 36.1257 168.031 36.1257C172.307 36.1257 173.562 33.9587 173.562 32.3595V31.6179L181.201 31.7888C181.264 32.1283 181.302 32.4721 181.314 32.8173C181.314 36.004 179.492 41.8242 167.988 41.8242C158.468 41.8242 153.563 36.5226 153.563 27.2868C153.555 19.1346 158.002 12.7466 168.164 12.7466ZM173.958 23.5815C174 23.3366 174.019 23.0883 174.013 22.8399C174.013 19.7024 171.334 18.1061 168.199 18.1061C164.549 18.1061 162.098 19.7603 161.756 23.5815H173.958Z" fill="white"/>
<path d="M184.512 13.3173H190.556L191.584 17.4224H192.039C193.351 15.4843 195.686 12.7466 200.704 12.7466C204.696 12.7466 207.888 14.4587 209.543 17.7643H209.94C211.481 15.3713 213.761 12.7466 219.004 12.7466C225.277 12.7466 229.382 16.223 229.382 23.9784V41.2534H221.116V24.72C221.116 19.8182 219.233 18.6189 216.383 18.6189C215.181 18.5879 214.002 18.95 213.025 19.6501C212.047 20.3502 211.325 21.3502 210.968 22.498V41.2534H202.758V24.2015C202.758 20.3832 201.388 18.6131 198.253 18.6131C195.573 18.6131 193.977 20.2094 192.723 21.9794V41.2476H184.512V13.3173Z" fill="white"/>
<path d="M271.339 12.6658C265.87 12.6658 263.396 15.2586 261.84 17.6168H261.495C259.998 14.4504 257.118 12.6658 253.384 12.6658C248.317 12.6658 245.956 15.3137 244.693 17.0432H244.29L243.54 13.2423H240.663V41.4536H244.693V20.4356C246.706 17.9036 248.722 16.0611 252.465 16.0611C256.724 16.0611 258.798 18.4222 258.798 23.5441V41.4507H262.828V21.4177C263.407 18.9408 265.936 16.064 270.314 16.064C274.228 16.064 277.05 17.5125 277.05 24.3553V41.4478H281.079V23.8367C281.071 15.8322 277.328 12.6658 271.339 12.6658Z" fill="white"/>
<path d="M297.662 12.6658C289.371 12.6658 285.283 18.8857 285.283 27.2321C285.283 36.6764 289.66 42.0301 297.662 42.0301C307.512 42.0301 308.96 35.3496 308.96 32.8755C308.966 32.6058 308.947 32.3362 308.902 32.0701L304.928 31.8384C304.97 32.1824 304.989 32.5289 304.986 32.8755C304.986 34.8339 303.604 38.6319 297.674 38.6319C291.801 38.6319 289.272 34.6601 289.272 27.4059H309.018C309.182 26.0108 309.26 24.6069 309.25 23.2023C309.227 17.2721 304.736 12.6658 297.662 12.6658ZM305.032 24.2394H289.429C289.831 19.1146 292.827 16.064 297.662 16.064C301.231 16.064 305.09 18.2513 305.09 23.2023C305.09 23.5491 305.067 23.8955 305.023 24.2394H305.032Z" fill="white"/>
<path d="M331.969 15.6614H331.74C330.242 14.2129 327.652 12.6658 323.564 12.6658C316.829 12.6658 312.165 17.5039 312.165 27.2901C312.165 36.8503 316.655 42.0302 323.564 42.0302C328.229 42.0302 330.517 40.1298 331.856 38.8638H332.2L332.89 41.4537H336.001V0H331.969V15.6614ZM331.969 35.5235C330.587 37.1371 328.229 38.632 324.888 38.632C319.535 38.632 316.31 35.8132 316.31 27.2322C316.31 18.6511 319.879 16.0641 324.888 16.0641C327.478 16.0641 330.071 17.2721 331.969 19.1147V35.5235Z" fill="white"/>
<path d="M346.132 2.24512H342.103V7.77266H346.132V2.24512Z" fill="white"/>
<path d="M346.132 13.2424H342.103V41.4538H346.132V13.2424Z" fill="white"/>
<path d="M375.499 38.0583C374.982 38.2469 374.436 38.3449 373.886 38.348C373.138 38.348 372.678 38.0583 372.678 37.2529V22.281C372.678 17.3879 370.49 12.6658 362.025 12.6658C354.829 12.6658 351.373 16.064 351.373 21.2439C351.373 21.9609 351.451 22.6758 351.605 23.3761L355.634 22.6837C355.533 22.0745 355.476 21.4587 355.464 20.8412C355.464 17.33 357.764 16.064 362.025 16.064C366.574 16.064 368.645 18.596 368.645 21.5336V25.3316C355.634 25.3316 350.452 28.8457 350.452 34.1995C350.452 39.727 354.024 42.0215 358.801 42.0215C363.523 42.0215 367.492 38.855 368.474 37.702H368.764C368.88 40.121 369.633 42.0215 372.681 42.0215C373.722 41.9962 374.753 41.8004 375.731 41.442L375.499 38.0583ZM368.639 34.1995C366.51 36.7344 362.999 38.6319 359.369 38.6319C356.431 38.6319 354.647 36.9632 354.647 34.0836C354.647 30.8012 357.929 28.3851 368.636 28.3851L368.639 34.1995Z" fill="white"/>
<path d="M41.445 33.9941C41.4456 35.5253 40.992 37.0224 40.1417 38.2958C39.2913 39.5692 38.0824 40.5618 36.6678 41.1481C35.2532 41.7343 33.6965 41.8879 32.1947 41.5893C30.6928 41.2907 29.3133 40.5534 28.2305 39.4706C27.1478 38.3879 26.4105 37.0083 26.1119 35.5064C25.8133 34.0046 25.9668 32.4479 26.5531 31.0333C27.1393 29.6188 28.1319 28.4098 29.4054 27.5595C30.6788 26.7091 32.1758 26.2555 33.7071 26.2561C35.7593 26.2561 37.7275 27.0714 39.1786 28.5225C40.6298 29.9737 41.445 31.9418 41.445 33.9941Z" fill="white"/>
<path d="M31.1345 0.258063C28.382 0.258063 25.7422 1.35127 23.7957 3.29729C21.8491 5.24331 20.7551 7.88279 20.7544 10.6353C20.7586 8.22683 19.9214 5.89259 18.3875 4.0358C18.2832 3.90544 18.1731 3.78086 18.0601 3.65918C17.6142 3.1663 17.1213 2.71804 16.5884 2.32075C16.4552 2.21936 16.319 2.12375 16.1829 2.03105C14.4725 0.873401 12.4541 0.25576 10.3888 0.258063H0V41.7726H10.3801C13.1026 41.7271 15.6983 40.6137 17.6076 38.6722C19.5168 36.7308 20.5868 34.1169 20.5868 31.394C20.5868 28.671 19.5168 26.0571 17.6076 24.1157C15.6983 22.1743 13.1026 21.0608 10.3801 21.0153H41.5145V10.6353C41.5145 9.27226 41.246 7.92261 40.7244 6.6634C40.2027 5.40419 39.438 4.26009 38.4741 3.29644C37.5102 2.33279 36.3659 1.56848 35.1065 1.04715C33.8472 0.525813 32.4975 0.257683 31.1345 0.258063Z" fill="white"/>
</svg>
