<svg width="221" height="25" viewBox="0 0 221 25" fill="none" xmlns="http://www.w3.org/2000/svg">
<path d="M36.9004 0.122437H41.7295V9.48279H41.9306C42.7349 8.53159 44.277 7.58728 46.557 7.58728C50.1456 7.58728 53.5672 9.89463 53.5672 16.2032C53.5672 22.4429 50.2461 24.8846 46.557 24.8846C43.6397 24.8846 42.1981 23.563 41.4262 22.7151H41.2251L40.5214 24.5452H36.9004V0.122437ZM41.7295 19.9615C42.0985 20.4164 42.5647 20.7809 43.093 21.0274C43.6213 21.2739 44.198 21.3961 44.7797 21.3848C47.0273 21.3848 48.6375 20.1648 48.6375 16.1963C48.6375 12.1951 46.9335 11.075 44.7797 11.075C43.6397 11.075 42.4673 11.6867 41.7295 12.5346V19.9615Z" fill="white"/>
<path d="M55.0091 14.0264C54.9418 13.6227 54.9082 13.214 54.9086 12.8047C54.9086 9.61675 57.2942 7.58167 62.4863 7.58167C68.3225 7.58167 69.897 10.499 69.897 13.6128V20.3625C69.897 21.0398 70.1662 21.312 70.6348 21.312C70.92 21.3167 71.2037 21.2706 71.4732 21.1759L71.6742 24.431C70.7832 24.7141 69.8562 24.8645 68.9223 24.8773C66.4736 24.8773 65.9369 23.4867 65.8704 22.2322H65.6693C65.0985 22.9111 63.0861 24.8773 59.5349 24.8773C56.3161 24.8773 54.2031 23.4195 54.2031 20.397C54.2031 16.9041 56.9534 14.8708 65.1701 14.7002V13.3785C65.1701 11.9189 64.2635 10.9022 62.2528 10.9022C60.2421 10.9022 59.2674 11.5467 59.2674 12.9701C59.2763 13.2307 59.2984 13.4907 59.3339 13.749L55.0091 14.0264ZM61.1111 21.5205C61.8761 21.5122 62.6313 21.3454 63.33 21.0303C64.0287 20.7153 64.6561 20.2587 65.1735 19.6888V17.247C60.2438 17.3487 58.8687 18.3671 58.8687 19.7904C58.8687 21.0122 59.6695 21.5205 61.1111 21.5205Z" fill="white"/>
<path d="M88.607 24.5383H84.9519L84.2806 22.7083H84.0846C83.3127 23.5561 81.837 24.8777 78.9539 24.8777C75.2647 24.8777 71.9453 22.436 71.9453 16.1963C71.9453 9.88946 75.3652 7.58039 78.9539 7.58039C81.2338 7.58039 82.7759 8.52987 83.5819 9.4759H83.783V0.122437H88.6121L88.607 24.5383ZM83.7779 12.5346C83.0401 11.6867 81.8319 11.075 80.6919 11.075C78.5807 11.075 76.8699 12.1951 76.8699 16.1963C76.8699 20.1597 78.4784 21.3848 80.6919 21.3848C82.1011 21.3848 83.1747 20.7404 83.7779 19.9615V12.5346Z" fill="white"/>
<path d="M98.9124 7.58167C103.943 7.58167 106.793 10.2612 106.793 13.9919C106.775 14.9338 106.704 15.8739 106.58 16.8076H95.0102C95.0102 20.0972 96.3854 21.4878 98.834 21.4878C101.349 21.4878 102.087 20.1988 102.087 19.2476V18.8065L106.58 18.9082C106.618 19.1101 106.64 19.3146 106.647 19.5199C106.647 21.4154 105.575 24.8773 98.8084 24.8773C93.2091 24.8773 90.3242 21.7239 90.3242 16.2303C90.3191 11.3813 92.9348 7.58167 98.9124 7.58167ZM102.32 14.0264C102.345 13.8807 102.356 13.733 102.353 13.5852C102.353 11.719 100.777 10.7696 98.9328 10.7696C96.7858 10.7696 95.3442 11.7535 95.1431 14.0264H102.32Z" fill="white"/>
<path d="M108.527 7.92113H112.082L112.687 10.3629H112.954C113.726 9.21007 115.1 7.58167 118.051 7.58167C120.399 7.58167 122.277 8.60008 123.25 10.5662H123.483C124.39 9.14288 125.731 7.58167 128.815 7.58167C132.504 7.58167 134.919 9.64949 134.919 14.2625V24.5378H130.057V14.7036C130.057 11.788 128.95 11.0746 127.273 11.0746C126.566 11.0561 125.873 11.2715 125.298 11.688C124.723 12.1044 124.298 12.6992 124.088 13.3819V24.5378H119.259V14.3951C119.259 12.124 118.453 11.0711 116.609 11.0711C115.033 11.0711 114.094 12.0206 113.356 13.0735V24.5344H108.527V7.92113Z" fill="white"/>
<path d="M159.6 7.53369C156.383 7.53369 154.928 9.07595 154.013 10.4786H153.81C152.929 8.59518 151.235 7.53369 149.039 7.53369C146.059 7.53369 144.67 9.10868 143.927 10.1374H143.69L143.249 7.8766H141.557V24.657H143.927V12.1553C145.111 10.6492 146.297 9.55327 148.499 9.55327C151.004 9.55327 152.224 10.9577 152.224 14.0043V24.6553H154.594V12.7394C154.935 11.2661 156.422 9.55499 158.997 9.55499C161.299 9.55499 162.959 10.4166 162.959 14.4868V24.6536H165.329V14.1783C165.324 9.41714 163.122 7.53369 159.6 7.53369Z" fill="white"/>
<path d="M175.08 7.53369C170.203 7.53369 167.799 11.2334 167.799 16.1979C167.799 21.8155 170.374 24.9999 175.08 24.9999C180.874 24.9999 181.726 21.0263 181.726 19.5546C181.729 19.3942 181.718 19.2339 181.692 19.0756L179.354 18.9377C179.379 19.1424 179.39 19.3485 179.388 19.5546C179.388 20.7195 178.575 22.9786 175.087 22.9786C171.633 22.9786 170.145 20.6161 170.145 16.3013H181.76C181.856 15.4715 181.902 14.6364 181.896 13.8009C181.882 10.2736 179.241 7.53369 175.08 7.53369ZM179.415 14.4178H170.237C170.474 11.3695 172.236 9.55499 175.08 9.55499C177.179 9.55499 179.449 10.856 179.449 13.8009C179.449 14.0072 179.436 14.2132 179.41 14.4178H179.415Z" fill="white"/>
<path d="M195.26 9.31556H195.125C194.244 8.45396 192.721 7.53378 190.317 7.53378C186.355 7.53378 183.611 10.4115 183.611 16.2324C183.611 21.9189 186.253 25 190.317 25C193.06 25 194.406 23.8696 195.193 23.1166H195.396L195.802 24.6571H197.632V0H195.26V9.31556ZM195.26 21.1297C194.447 22.0895 193.06 22.9787 191.095 22.9787C187.946 22.9787 186.05 21.302 186.05 16.198C186.05 11.0939 188.149 9.55507 191.095 9.55507C192.619 9.55507 194.144 10.2736 195.26 11.3696V21.1297Z" fill="white"/>
<path d="M203.589 1.33545H201.219V4.62329H203.589V1.33545Z" fill="white"/>
<path d="M203.589 7.87659H201.219V24.657H203.589V7.87659Z" fill="white"/>
<path d="M220.864 22.6374C220.559 22.7496 220.238 22.8079 219.915 22.8098C219.475 22.8098 219.204 22.6374 219.204 22.1584V13.253C219.204 10.3425 217.917 7.53369 212.938 7.53369C208.706 7.53369 206.673 9.55499 206.673 12.636C206.673 13.0625 206.719 13.4878 206.809 13.9043L209.179 13.4925C209.119 13.1301 209.086 12.7638 209.079 12.3965C209.079 10.308 210.432 9.55499 212.938 9.55499C215.614 9.55499 216.832 11.0611 216.832 12.8084V15.0675C209.179 15.0675 206.131 17.1577 206.131 20.3421C206.131 23.63 208.232 24.9948 211.042 24.9948C213.819 24.9948 216.154 23.1113 216.731 22.4255H216.902C216.97 23.8643 217.413 24.9948 219.206 24.9948C219.818 24.9797 220.424 24.8633 221 24.6501L220.864 22.6374ZM216.829 20.3421C215.576 21.8499 213.511 22.9786 211.376 22.9786C209.648 22.9786 208.598 21.9861 208.598 20.2732C208.598 18.3208 210.529 16.8837 216.827 16.8837L216.829 20.3421Z" fill="white"/>
<path d="M24.3777 20.2202C24.378 21.131 24.1112 22.0214 23.611 22.7789C23.1109 23.5363 22.3998 24.1267 21.5677 24.4754C20.7357 24.8242 19.8201 24.9155 18.9367 24.7379C18.0534 24.5603 17.2419 24.1217 16.6051 23.4777C15.9682 22.8336 15.5345 22.0131 15.3589 21.1198C15.1833 20.2264 15.2736 19.3005 15.6184 18.4591C15.9632 17.6177 16.5471 16.8986 17.2961 16.3928C18.0451 15.887 18.9256 15.6172 19.8263 15.6176C21.0334 15.6176 22.191 16.1025 23.0446 16.9656C23.8981 17.8288 24.3777 18.9995 24.3777 20.2202Z" fill="white"/>
<path d="M18.3129 0.15369C16.6939 0.15369 15.1412 0.803943 13.9963 1.96145C12.8514 3.11896 12.2079 4.68895 12.2075 6.32615C12.2099 4.8936 11.7175 3.50516 10.8153 2.40073C10.7539 2.32318 10.6892 2.24908 10.6227 2.17671C10.3604 1.88354 10.0705 1.61691 9.7571 1.3806C9.67872 1.32029 9.59863 1.26342 9.51854 1.20828C8.51254 0.5197 7.32532 0.152321 6.11054 0.15369H0V24.847H6.10543C7.7068 24.8199 9.23354 24.1576 10.3565 23.0028C11.4795 21.848 12.1089 20.2933 12.1089 18.6736C12.1089 17.054 11.4795 15.4992 10.3565 14.3445C9.23354 13.1897 7.7068 12.5274 6.10543 12.5003H24.4183V6.32615C24.4183 5.51542 24.2604 4.71264 23.9535 3.96365C23.6467 3.21466 23.1969 2.53414 22.63 1.96095C22.063 1.38776 21.3899 0.933138 20.6492 0.623044C19.9085 0.312951 19.1146 0.153464 18.3129 0.15369Z" fill="white"/>
</svg>
