<svg width="183" height="58" viewBox="0 0 183 58" fill="none" xmlns="http://www.w3.org/2000/svg">
<g clip-path="url(#clip0_385_161)">
<path d="M76.8517 0H82.0786V10.0747H82.3002C82.944 9.39464 83.7276 8.86233 84.5969 8.51447C85.4662 8.16661 86.4006 8.01148 87.3357 8.05975C91.213 8.05975 94.9191 10.5281 94.9191 17.2882C94.9191 24.0483 91.3238 26.5871 87.3357 26.5871C86.2942 26.6386 85.2544 26.4563 84.2925 26.0536C83.3305 25.651 82.4709 25.0381 81.7765 24.2599H81.5549L80.7996 26.2748H76.8719L76.8517 0ZM82.0786 21.2475C82.4786 21.7342 82.9836 22.1239 83.5557 22.3874C84.1278 22.6509 84.7522 22.7813 85.3819 22.7688C87.8191 22.7688 89.5613 21.4692 89.5613 17.2176C89.5613 12.9661 87.7083 11.7269 85.3819 11.7269C84.7542 11.7496 84.1377 11.8998 83.5699 12.1682C83.002 12.4367 82.4946 12.8178 82.0786 13.2885V21.2475Z" fill="white"/>
<path d="M96.46 14.8904C96.3881 14.4575 96.3511 14.0195 96.3492 13.5807C96.3492 10.1654 98.9374 7.98926 104.557 7.98926C110.882 7.98926 112.614 11.1124 112.614 14.4572V21.6808C112.614 22.4061 112.906 22.6882 113.42 22.6882C113.728 22.6949 114.034 22.6472 114.326 22.5472L114.537 26.033C113.575 26.3328 112.574 26.4923 111.566 26.5065C108.908 26.5065 108.334 25.0155 108.263 23.6756H108.042C107.201 24.5956 106.172 25.3244 105.025 25.8128C103.879 26.3012 102.641 26.5378 101.395 26.5065C97.9102 26.5065 95.6241 24.945 95.6241 21.711C95.6241 17.9632 98.6454 15.7871 107.498 15.6057V14.1953C107.498 12.6337 106.491 11.5456 104.335 11.5456C102.18 11.5456 101.103 12.2408 101.103 13.7621C101.103 13.9837 101.103 14.3061 101.173 14.5983L96.46 14.8904ZM103.077 22.9502C103.904 22.9409 104.721 22.7617 105.476 22.4238C106.231 22.0859 106.909 21.5964 107.468 20.9856V18.336C102.13 18.4468 100.639 19.5349 100.639 21.0662C100.639 22.3759 101.516 22.92 103.077 22.92V22.9502Z" fill="white"/>
<path d="M132.816 26.1539H128.889L128.163 24.139H127.952C127.255 24.9138 126.395 25.5244 125.433 25.9268C124.472 26.3292 123.434 26.5135 122.393 26.4663C118.364 26.4663 114.799 23.8468 114.799 17.1673C114.799 10.4878 118.505 7.9389 122.393 7.9389C123.328 7.89198 124.262 8.04773 125.131 8.39551C126 8.74329 126.784 9.27487 127.428 9.95384H127.64V-0.12085H132.816V26.1539ZM127.589 13.2886C127.166 12.8158 126.652 12.4336 126.077 12.1652C125.503 11.8969 124.88 11.7478 124.246 11.727C121.96 11.727 120.107 12.9259 120.107 17.2177C120.107 21.5095 121.849 22.7689 124.246 22.7689C124.882 22.7867 125.514 22.659 126.094 22.3954C126.673 22.1317 127.185 21.7391 127.589 21.2476V13.2886Z" fill="white"/>
<path d="M143.995 7.98926C149.443 7.98926 152.535 10.8605 152.535 14.8501C152.519 15.861 152.445 16.8701 152.314 17.8725H139.785C139.785 21.3886 141.276 22.9099 143.925 22.9099C146.573 22.9099 147.449 21.5296 147.449 20.5121V20.0386L152.314 20.1494C152.355 20.3654 152.379 20.5844 152.384 20.8043C152.384 22.8192 151.226 26.5468 143.894 26.5468C137.852 26.5468 134.7 23.1617 134.7 17.2781C134.7 12.0594 137.54 7.98926 143.995 7.98926ZM147.701 14.8904C147.718 14.7331 147.718 14.5743 147.701 14.4169C147.701 12.402 145.989 11.3945 143.995 11.3945C141.669 11.3945 140.108 12.402 139.896 14.8803L147.701 14.8904Z" fill="white"/>
<path d="M154.419 8.35194H158.276L158.92 10.9613H159.212C159.779 10.011 160.59 9.22967 161.56 8.69825C162.531 8.16683 163.625 7.90465 164.731 7.93887C165.878 7.86606 167.022 8.12937 168.022 8.69659C169.022 9.26382 169.834 10.1103 170.361 11.1325H170.623C171.187 10.1113 172.028 9.26998 173.049 8.70509C174.069 8.14019 175.229 7.87463 176.393 7.93887C180.422 7.93887 183 10.1553 183 15.0919V26.1539H177.733V15.6158C177.733 12.4926 176.534 11.727 174.712 11.727C173.946 11.7087 173.196 11.9395 172.573 12.3846C171.95 12.8298 171.488 13.4651 171.257 14.1953V26.1539H166.051V15.2934C166.051 12.8553 165.184 11.727 163.18 11.727C162.46 11.7526 161.758 11.9636 161.142 12.3394C160.526 12.7153 160.018 13.2434 159.666 13.8729V26.1539H154.429L154.419 8.35194Z" fill="white"/>
<path d="M77.3251 39.8353H79.1379L79.6112 42.2331H79.863C80.468 41.3443 81.2894 40.6244 82.2498 40.1414C83.2101 39.6584 84.2777 39.4282 85.3517 39.4726C86.4185 39.4239 87.4755 39.6951 88.3871 40.2516C89.2987 40.8081 90.0232 41.6244 90.4677 42.5958H90.6893C91.3087 41.5666 92.2016 40.7297 93.2685 40.1783C94.3354 39.6268 95.5344 39.3825 96.7319 39.4726C100.508 39.4726 102.865 41.4876 102.865 46.5249V57.6071H100.327V46.8473C100.327 42.5252 98.5447 41.6185 96.0773 41.6185C95.0105 41.5527 93.9536 41.8563 93.0843 42.4783C92.2149 43.1003 91.5861 44.0027 91.3036 45.0338V57.6373H88.7657V46.3335C88.7657 43.1096 87.4565 41.6185 84.7373 41.6185C82.3807 41.6185 81.1118 42.7771 79.8328 44.379V57.6373H77.3251V39.8353Z" fill="white"/>
<path d="M113.279 39.4727C117.74 39.4727 120.58 42.3742 120.58 46.122C120.585 47.0075 120.534 47.8924 120.429 48.7716H107.971C107.971 53.3455 109.572 55.8239 113.279 55.8239C116.985 55.8239 117.891 53.4261 117.891 52.197C117.907 51.979 117.907 51.7601 117.891 51.5421L120.399 51.6832C120.416 51.854 120.416 52.0262 120.399 52.197C120.399 53.7586 119.482 57.9698 113.279 57.9698C108.243 57.9698 105.474 54.5948 105.474 48.6305C105.474 43.3917 108.052 39.4727 113.279 39.4727ZM117.921 46.7768C117.936 46.5588 117.936 46.34 117.921 46.122C117.937 45.5108 117.824 44.9033 117.592 44.3379C117.36 43.7725 117.012 43.2617 116.572 42.8381C116.131 42.4145 115.607 42.0872 115.033 41.8773C114.459 41.6673 113.848 41.5792 113.238 41.6186C110.217 41.6186 108.293 43.5428 108.042 46.7768H117.921Z" fill="white"/>
<path d="M137.459 57.6373H135.505L135.062 56.0052H134.83C134.145 56.6868 133.326 57.218 132.424 57.5649C131.523 57.9119 130.558 58.0669 129.594 58.0201C125.243 58.0201 122.413 54.7459 122.413 48.7212C122.413 42.6965 125.354 39.4928 129.594 39.4928C130.546 39.4414 131.5 39.5797 132.399 39.8996C133.298 40.2195 134.124 40.7148 134.83 41.3566H134.971V31.4834H137.509L137.459 57.6373ZM134.921 43.5327C133.733 42.341 132.132 41.6521 130.45 41.6085C127.297 41.6085 125.041 43.2406 125.041 48.6607C125.041 54.0809 127.056 55.8541 130.45 55.8541C131.293 55.8736 132.131 55.7078 132.903 55.3683C133.676 55.0289 134.365 54.5241 134.921 53.8895V43.5327Z" fill="white"/>
<path d="M141.316 32.9442H143.894V36.4301H141.356L141.316 32.9442ZM141.316 39.8857H143.894V57.6373H141.356L141.316 39.8857Z" fill="white"/>
<path d="M147.308 46.2328C147.209 45.7896 147.159 45.3369 147.157 44.8828C147.157 41.6186 149.343 39.4727 153.875 39.4727C159.212 39.4727 160.592 42.4951 160.592 45.5175V54.9675C160.592 55.4713 160.884 55.6526 161.357 55.6526C161.701 55.6513 162.042 55.5899 162.365 55.4713L162.506 57.6172C161.888 57.8418 161.239 57.9643 160.582 57.9799C158.658 57.9799 158.185 56.781 158.115 55.2496H157.994C156.381 56.9044 154.199 57.881 151.891 57.9799C148.869 57.9799 146.634 56.5291 146.634 53.0433C146.634 49.5574 149.897 47.4417 158.105 47.4417V45.0339C158.105 43.1801 156.795 41.5883 153.925 41.5883C151.236 41.5883 149.786 42.3842 149.786 44.6107C149.796 44.999 149.833 45.3862 149.897 45.7693L147.308 46.2328ZM152.203 55.8541C153.317 55.8315 154.415 55.5739 155.423 55.0983C156.431 54.6226 157.328 53.9395 158.054 53.0936V49.3861C151.297 49.3861 149.232 50.9175 149.232 52.9828C149.201 53.3765 149.258 53.772 149.398 54.1412C149.538 54.5104 149.758 54.8441 150.041 55.1184C150.325 55.3928 150.666 55.601 151.04 55.7282C151.414 55.8553 151.811 55.8983 152.203 55.8541Z" fill="white"/>
<path d="M57.5255 47.0488C57.5195 49.1736 56.8842 51.249 55.6999 53.0128C54.5155 54.7766 52.8351 56.1497 50.8711 56.9587C48.907 57.7677 46.7474 57.9762 44.6649 57.5581C42.5824 57.1399 40.6706 56.1137 39.1708 54.6091C37.671 53.1045 36.6505 51.1891 36.2383 49.1047C35.8262 47.0203 36.0407 44.8604 36.8549 42.8979C37.6691 40.9354 39.0464 39.2583 40.8129 38.0785C42.5794 36.8986 44.6557 36.2689 46.7798 36.2689C48.1935 36.2689 49.5933 36.548 50.899 37.0901C52.2047 37.6322 53.3906 38.4267 54.3889 39.4281C55.3871 40.4295 56.178 41.6181 56.7162 42.9258C57.2545 44.2335 57.5295 45.6346 57.5255 47.0488Z" fill="white"/>
<path d="M43.1844 0.181311C39.3649 0.181311 35.7018 1.69917 33.001 4.40097C30.3002 7.10277 28.7829 10.7672 28.7829 14.5881C28.7877 11.2414 27.6228 7.99833 25.4897 5.42015C25.3487 5.23881 25.1976 5.06754 25.0365 4.89627C24.4284 4.21291 23.7536 3.59192 23.0223 3.04252C22.841 2.90148 22.6497 2.77051 22.4583 2.63953C20.0795 1.03127 17.2726 0.17486 14.4015 0.181311H0V57.8186H14.4116C18.1665 57.7193 21.7343 56.1573 24.355 53.4654C26.9757 50.7735 28.4422 47.1644 28.4422 43.4068C28.4422 39.6492 26.9757 36.0401 24.355 33.3481C21.7343 30.6562 18.1665 29.0943 14.4116 28.9949H57.6262V14.5881C57.6249 12.6932 57.2502 10.8171 56.5234 9.06712C55.7967 7.31718 54.7322 5.72772 53.3909 4.38966C52.0496 3.0516 50.4578 1.99119 48.7064 1.26908C46.9551 0.546976 45.0787 0.177337 43.1844 0.181311Z" fill="white"/>
</g>
<defs>
<clipPath id="clip0_385_161">
<rect width="183" height="58" fill="white"/>
</clipPath>
</defs>
</svg>
