<svg width="340" height="341" viewBox="0 0 340 341" fill="none" xmlns="http://www.w3.org/2000/svg">
<g opacity="0.2">
<path d="M339.433 277.066C339.433 289.602 335.716 301.856 328.751 312.279C321.787 322.702 311.888 330.826 300.306 335.623C288.725 340.421 275.981 341.676 263.686 339.23C251.391 336.785 240.097 330.748 231.233 321.884C222.369 313.02 216.332 301.726 213.887 289.431C211.441 277.136 212.696 264.392 217.493 252.81C222.291 241.229 230.415 231.33 240.838 224.365C251.261 217.401 263.515 213.684 276.051 213.684C284.375 213.683 292.617 215.322 300.307 218.507C307.997 221.692 314.985 226.36 320.871 232.246C326.756 238.132 331.425 245.119 334.61 252.81C337.795 260.5 339.434 268.742 339.433 277.066Z" fill="white"/>
<path d="M255.003 0.764344C232.459 0.764344 210.838 9.71999 194.897 25.6611C178.956 41.6023 170 63.2231 170 85.7673C170.032 66.0338 163.167 46.9094 150.593 31.7006C149.728 30.6503 148.803 29.6238 147.92 28.6153C144.258 24.5851 140.22 20.9142 135.859 17.6528C134.769 16.8332 133.657 16.0375 132.523 15.2657C118.494 5.77794 101.939 0.719929 85.003 0.746442H0V340.77H85.003C107.423 340.582 128.861 331.544 144.648 315.624C160.436 299.704 169.294 278.191 169.294 255.77C169.294 233.35 160.436 211.837 144.648 195.916C128.861 179.996 107.423 170.958 85.003 170.77H340V85.7673C340.001 74.6048 337.803 63.5515 333.532 53.2385C329.261 42.9255 323 33.5548 315.107 25.6615C307.214 17.7682 297.844 11.5068 287.531 7.23492C277.219 2.96305 266.165 0.764344 255.003 0.764344Z" fill="white"/>
</g>
</svg>
