<svg width="31" height="31" viewBox="0 0 31 31" fill="none" xmlns="http://www.w3.org/2000/svg">
<path d="M30 20.5651C27.2638 21.665 24.2645 21.9368 21.3749 21.3467C18.4854 20.7566 15.8331 19.3306 13.7477 17.246C11.6623 15.1614 10.2358 12.5101 9.64545 9.62172C9.05512 6.73332 9.32703 3.73519 10.4274 1C7.18706 2.30467 4.50168 4.69542 2.83156 7.76241C1.16144 10.8294 0.610603 14.3816 1.27348 17.8101C1.93636 21.2386 3.77167 24.3298 6.46478 26.5539C9.15789 28.7779 12.5411 29.9962 16.0344 30C19.0383 30.0001 21.9736 29.1016 24.4625 27.4202C26.9513 25.7388 28.8799 23.3513 30 20.5651Z" stroke="currentColor" stroke-linecap="round" stroke-linejoin="round"/>
</svg>
