<svg width="58" height="58" fill="none" stroke="currentColor" stroke-linecap="round" stroke-linejoin="round" stroke-width="1" viewBox="0 0 24 24" xmlns="http://www.w3.org/2000/svg">
  <path d="M12 10a3.5 3.5 0 1 0 0-7 3.5 3.5 0 0 0 0 7Z"></path>
  <path d="M6 3.627A3.498 3.498 0 0 0 6.196 9.5"></path>
  <path d="M18 3.627A3.496 3.496 0 0 1 19.5 6.5c0 1.189-.593 2.24-1.5 2.872"></path>
  <path d="M6 20v1h12v-1c0-1.864 0-2.796-.305-3.53a4 4 0 0 0-2.164-2.165C14.796 14 13.864 14 12 14s-2.796 0-3.53.305a4 4 0 0 0-2.166 2.164C6 17.204 6 18.136 6 20Z"></path>
  <path d="M22 21v-.6c0-2.24 0-3.36-.436-4.216a4 4 0 0 0-1.748-1.749"></path>
  <path d="M2 21v-.6c0-2.24 0-3.36.436-4.216a4 4 0 0 1 1.748-1.749"></path>
</svg>