<?xml version="1.0" standalone="no"?>
<!DOCTYPE svg PUBLIC "-//W3C//DTD SVG 20010904//EN"
 "http://www.w3.org/TR/2001/REC-SVG-20010904/DTD/svg10.dtd">
<svg version="1.0" xmlns="http://www.w3.org/2000/svg"
 width="800.000000pt" height="800.000000pt" viewBox="0 0 800.000000 800.000000"
 preserveAspectRatio="xMidYMid meet">
<metadata>
Created by potrace 1.14, written by Peter Selinger 2001-2017
</metadata>
<g transform="translate(0.000000,800.000000) scale(0.100000,-0.100000)"
fill="#000000" stroke="none">
<path d="M705 7914 c-309 -66 -558 -318 -620 -629 -14 -72 -15 -395 -13 -3320
3 -3088 4 -3243 21 -3300 85 -281 300 -495 577 -572 62 -17 206 -18 3330 -18
3124 0 3268 1 3330 18 279 78 499 298 577 577 17 62 18 206 18 3330 0 3124 -1
3268 -18 3330 -77 277 -291 492 -572 577 -57 17 -211 18 -3310 20 -2841 1
-3259 0 -3320 -13z m2600 -2083 c276 -78 494 -262 612 -518 36 -78 73 -207 73
-255 0 -15 5 -28 10 -28 6 0 10 13 10 28 0 48 37 177 73 255 120 258 341 444
617 518 121 32 327 33 453 1 332 -83 591 -340 679 -674 21 -79 22 -106 25
-620 l4 -538 -1338 -1 c-1322 -1 -1337 -1 -1258 -19 105 -24 154 -43 243 -90
229 -124 395 -334 463 -585 29 -106 32 -344 6 -448 -84 -335 -336 -593 -672
-688 -78 -22 -96 -23 -622 -26 l-543 -4 0 1861 0 1861 543 -4 c526 -3 544 -4
622 -26z m2071 -2335 c138 -44 279 -151 360 -274 79 -118 114 -235 114 -383 0
-186 -67 -354 -194 -484 -361 -368 -980 -232 -1149 254 -39 109 -48 276 -23
384 63 267 272 469 547 527 81 17 255 5 345 -24z"/>
</g>
</svg>
