<svg width="199" height="165" viewBox="0 0 199 165" fill="none" xmlns="http://www.w3.org/2000/svg">
<path d="M111.636 163.127C110.45 161.939 109.783 160.329 109.783 158.651C109.783 156.973 110.45 155.363 111.636 154.176L176.817 88.9841L6.33278 88.9841C4.65306 88.9841 3.04214 88.3168 1.8544 87.1291C0.666668 85.9413 -0.000598758 84.3304 -0.000598685 82.6507C-0.000598611 80.971 0.666668 79.3601 1.8544 78.1723C3.04214 76.9846 4.65306 76.3173 6.33278 76.3173L176.817 76.3173L111.636 11.1258C110.517 9.92523 109.908 8.33727 109.937 6.69649C109.966 5.05572 110.63 3.49023 111.791 2.32985C112.951 1.16947 114.517 0.504786 116.157 0.475837C117.798 0.446887 119.386 1.05593 120.587 2.17466L196.587 78.1751C197.773 79.3626 198.439 80.9723 198.439 82.6507C198.439 84.329 197.773 85.9388 196.587 87.1263L120.587 163.127C119.399 164.313 117.79 164.979 116.111 164.979C114.433 164.979 112.823 164.313 111.636 163.127Z" fill="white"/>
</svg>
