<svg width="199" height="165" viewBox="0 0 199 165" fill="none" xmlns="http://www.w3.org/2000/svg">
<path d="M86.8038 163.127C87.9899 161.939 88.6561 160.329 88.6561 158.651C88.6561 156.973 87.9899 155.363 86.8038 154.176L21.6229 88.9841L192.107 88.9841C193.786 88.9841 195.397 88.3168 196.585 87.1291C197.773 85.9413 198.44 84.3304 198.44 82.6507C198.44 80.971 197.773 79.3601 196.585 78.1723C195.397 76.9846 193.786 76.3173 192.107 76.3173L21.6229 76.3173L86.8038 11.1258C87.9226 9.92523 88.5316 8.33727 88.5027 6.69649C88.4737 5.05572 87.809 3.49023 86.6486 2.32985C85.4883 1.16947 83.9228 0.504786 82.282 0.475837C80.6412 0.446887 79.0533 1.05593 77.8527 2.17466L1.85222 78.1751C0.666184 79.3626 3.51866e-06 80.9723 3.59202e-06 82.6507C3.66538e-06 84.329 0.666185 85.9388 1.85222 87.1263L77.8527 163.127C79.0402 164.313 80.6499 164.979 82.3283 164.979C84.0066 164.979 85.6163 164.313 86.8038 163.127Z" fill="white"/>
</svg>
