<svg width="44" height="36" viewBox="0 0 44 36" fill="none" xmlns="http://www.w3.org/2000/svg">
<path d="M24.753 35.5947C24.4901 35.3348 24.3423 34.9825 24.3423 34.6152C24.3423 34.2479 24.4901 33.8957 24.753 33.6358L39.2056 19.3693L1.40429 19.3693C1.03185 19.3693 0.674663 19.2233 0.411307 18.9634C0.147948 18.7034 -8.02144e-07 18.3509 -7.86076e-07 17.9833C-7.70008e-07 17.6157 0.147948 17.2632 0.411308 17.0033C0.674663 16.7434 1.03185 16.5973 1.40429 16.5973L39.2056 16.5973L24.753 2.33085C24.505 2.06812 24.3699 1.72061 24.3764 1.36154C24.3828 1.00247 24.5302 0.659884 24.7874 0.405947C25.0447 0.152009 25.3919 0.00655043 25.7557 0.000215135C26.1195 -0.00612016 26.4716 0.127162 26.7378 0.371984L43.5893 17.0039C43.8523 17.2638 44 17.616 44 17.9833C44 18.3506 43.8523 18.7029 43.5893 18.9628L26.7378 35.5947C26.4745 35.8542 26.1175 36 25.7454 36C25.3733 36 25.0163 35.8542 24.753 35.5947Z" fill="currentColor"/>
</svg>
