<svg width="498" height="11" viewBox="0 0 498 11" fill="none" xmlns="http://www.w3.org/2000/svg">
<path fill-rule="evenodd" clip-rule="evenodd" d="M482.33 5.44655C484.144 6.0274 484.693 6.49871 486.914 6.86518C500.12 9.03974 500.648 9.6193 487.565 9.42535C459.543 9.00968 430.767 8.42393 403.211 8.11162C358.095 7.60186 313.283 7.16278 269.177 6.87496C243.262 6.70607 217.873 6.67319 194.182 6.95865C159.446 7.37712 126.161 8.08227 92.8106 8.76927C70.1904 9.23586 48.4106 9.86168 26.4751 10.4571C18.9604 10.6616 9.55539 9.32575 5.09077 8.36971C1.08148 7.51131 -0.548463 6.14819 2.49489 5.92623C16.5811 4.8987 32.0357 4.08195 48.1361 3.38728C158.977 -1.39846 301.478 0.509945 453.632 4.46829C462.81 4.70718 472.668 5.11364 482.33 5.44655Z" fill="white"/>
</svg>
