<svg width="45" height="45" viewBox="0 0 45 45" fill="none" xmlns="http://www.w3.org/2000/svg">
<g id="Group 403">
<g id="Volume Notice">
<path id="Vector" d="M22.5938 10.125V34.5938C17.8359 34.5938 14.3016 28.3678 14.3016 28.3678H10.3594C9.99885 28.3678 9.65308 28.2246 9.39815 27.9697C9.14322 27.7147 9 27.369 9 27.0084V17.6084C9 17.2478 9.14322 16.9021 9.39815 16.6471C9.65308 16.3922 9.99885 16.249 10.3594 16.249H14.3016C14.3016 16.249 17.8359 10.125 22.5938 10.125Z" stroke="white" stroke-width="2" stroke-linecap="round" stroke-linejoin="round"/>
<path id="Vector_2" d="M28.0312 16.2422C28.889 17.0134 29.5745 17.9568 30.0429 19.0109C30.5114 20.0649 30.7523 21.2059 30.75 22.3594C30.7542 24.0889 30.2118 25.7755 29.2003 27.1784C28.8578 27.6541 28.4663 28.0891 28.0312 28.4766" stroke="white" stroke-width="2" stroke-linecap="round" stroke-linejoin="round"/>
<path id="Vector_3" d="M29.551 34.0404C31.5748 32.8356 33.2506 31.1253 34.414 29.0775C35.5775 27.0297 36.1886 24.7146 36.1875 22.3593C36.1885 20.0406 35.596 17.7603 34.4665 15.7354C33.3369 13.7105 31.7079 12.0083 29.7345 10.791" stroke="white" stroke-width="2" stroke-linecap="round" stroke-linejoin="round"/>
</g>
<circle id="Ellipse 2" cx="22.5" cy="22.5" r="21.5" stroke="white" stroke-width="2"/>
</g>
</svg>
