<svg width="27" height="30" viewBox="0 0 27 30" fill="none" xmlns="http://www.w3.org/2000/svg">
<path d="M22.855 6.39192C22.6533 6.28766 22.4569 6.17337 22.2666 6.04948C21.7133 5.68365 21.2059 5.2526 20.7555 4.76561C19.6286 3.47614 19.2077 2.168 19.0526 1.25211H19.0589C18.9294 0.491878 18.9829 0 18.991 0H13.858V19.8482C13.858 20.1147 13.858 20.3781 13.8468 20.6383C13.8468 20.6707 13.8437 20.7006 13.8418 20.7355C13.8418 20.7498 13.8418 20.7647 13.8387 20.7797V20.7909C13.7846 21.503 13.5563 22.191 13.174 22.7942C12.7916 23.3974 12.2668 23.8974 11.6458 24.2502C10.9986 24.6184 10.2666 24.8115 9.52204 24.8106C7.13051 24.8106 5.19227 22.8605 5.19227 20.4522C5.19227 18.0438 7.13051 16.0937 9.52204 16.0937C9.97474 16.0933 10.4247 16.1646 10.8551 16.3048L10.8613 11.0785C9.55464 10.9097 8.22716 11.0135 6.96263 11.3834C5.6981 11.7534 4.52396 12.3814 3.51428 13.2278C2.62956 13.9965 1.88578 14.9137 1.31639 15.9381C1.09972 16.3117 0.282205 17.8128 0.183206 20.2492C0.120943 21.632 0.536238 23.0647 0.734234 23.6568V23.6693C0.85876 24.018 1.3413 25.2078 2.12768 26.2109C2.76179 27.0155 3.51097 27.7223 4.35109 28.3085V28.2961L4.36354 28.3085C6.84846 29.9971 9.6036 29.8862 9.6036 29.8862C10.0805 29.8669 11.6782 29.8862 13.4925 29.0264C15.5049 28.0732 16.6505 26.6529 16.6505 26.6529C17.3824 25.8043 17.9644 24.8373 18.3715 23.7932C18.836 22.5722 18.991 21.1078 18.991 20.5225V9.99259C19.0533 10.03 19.8826 10.5785 19.8826 10.5785C19.8826 10.5785 21.0774 11.3443 22.9416 11.843C24.279 12.1979 26.0809 12.2727 26.0809 12.2727V7.17706C25.4495 7.24555 24.1675 7.04631 22.855 6.39192Z" fill="white"/>
</svg>
