<svg width="32" height="23" viewBox="0 0 32 23" fill="none" xmlns="http://www.w3.org/2000/svg">
<path d="M30.7217 4.35738C30.35 3.03773 29.3209 2.00276 27.9953 1.63689C25.5546 0.984406 15.7429 0.984406 15.7429 0.984406C15.7429 0.984406 5.9497 0.968754 3.48355 1.63689C2.16489 2.00373 1.13089 3.03773 0.763066 4.35738C0.300358 6.85874 0.0704719 9.39043 0.0812325 11.9339C0.0763413 14.4607 0.30525 16.9884 0.763066 19.4741C1.13089 20.7938 2.16489 21.8288 3.48355 22.2005C5.92426 22.853 15.7429 22.853 15.7429 22.853C15.7429 22.853 25.5302 22.853 27.9953 22.2005C29.3209 21.8288 30.35 20.7948 30.7217 19.4741C31.1707 16.9884 31.3898 14.4607 31.3742 11.9339C31.3898 9.39043 31.1756 6.85874 30.7217 4.35738ZM12.6086 16.6167V7.23047L20.7759 11.9339L12.6086 16.6167Z" fill="white"/>
</svg>
