<svg width="31" height="30" viewBox="0 0 31 30" fill="none" xmlns="http://www.w3.org/2000/svg">
<path d="M15.798 0C11.7203 0 11.2121 0.01969 9.61632 0.0871984C8.01394 0.165958 6.93005 0.414427 5.97368 0.785723C4.98731 1.17202 4.1472 1.6849 3.31741 2.51938C2.48199 3.34917 1.96443 4.18927 1.58376 5.17565C1.21246 6.13202 0.963993 7.2159 0.885233 8.81829C0.813037 10.4151 0.798035 10.9223 0.798035 15C0.798035 19.0777 0.817725 19.5859 0.885233 21.1817C0.963993 22.7794 1.21246 23.868 1.58376 24.8244C1.97006 25.8107 2.48293 26.6508 3.31741 27.4806C4.1472 28.316 4.98731 28.8336 5.97368 29.2143C6.93005 29.5809 8.01862 29.834 9.61632 29.9128C11.2131 29.985 11.7203 30 15.798 30C19.8757 30 20.3839 29.9803 21.9797 29.9128C23.5774 29.834 24.666 29.5799 25.6224 29.2143C26.6088 28.828 27.4489 28.3151 28.2787 27.4806C29.1141 26.6508 29.6316 25.8154 30.0123 24.8244C30.3789 23.868 30.6321 22.7794 30.7108 21.1817C30.783 19.5849 30.798 19.0777 30.798 15C30.798 10.9223 30.7783 10.4141 30.7108 8.81829C30.6321 7.22059 30.378 6.12639 30.0123 5.17565C29.626 4.18927 29.1131 3.34917 28.2787 2.51938C27.4489 1.68396 26.6134 1.1664 25.6224 0.785723C24.666 0.414427 23.5774 0.165958 21.9797 0.0871984C20.383 0.0150019 19.8757 0 15.798 0ZM15.798 2.70034C19.8026 2.70034 20.2808 2.72003 21.8635 2.78754C23.3233 2.85598 24.1184 3.09976 24.6463 3.30604C25.3505 3.57888 25.8427 3.90143 26.3753 4.42837C26.8975 4.95062 27.2201 5.44849 27.4929 6.15264C27.6992 6.68052 27.943 7.47562 28.0114 8.93549C28.0789 10.5182 28.0986 10.9973 28.0986 15.0009C28.0986 19.0046 28.0789 19.4837 28.0058 21.0664C27.927 22.5263 27.6833 23.3214 27.4779 23.8492C27.1938 24.5534 26.8769 25.0456 26.3537 25.5782C25.8258 26.1005 25.3233 26.423 24.6248 26.6958C24.1034 26.9021 23.2971 27.1459 21.8316 27.2143C20.2405 27.2818 19.7717 27.3015 15.7568 27.3015C11.7419 27.3015 11.274 27.2818 9.68102 27.2087C8.22115 27.13 7.41574 26.8862 6.88786 26.6808C6.17527 26.3967 5.68677 26.0798 5.16358 25.5566C4.6357 25.0288 4.30003 24.5262 4.04125 23.8277C3.83123 23.3064 3.5912 22.5 3.51337 21.0345C3.45993 19.4621 3.43461 18.9746 3.43461 14.9784C3.43461 10.9842 3.45993 10.4957 3.51337 8.90361C3.5912 7.43812 3.83123 6.63364 4.04125 6.11045C4.30003 5.39692 4.63664 4.90936 5.16358 4.38148C5.68583 3.85923 6.17527 3.52169 6.88786 3.25728C7.41574 3.05194 8.20146 2.80816 9.66696 2.73503C11.2581 2.67783 11.7269 2.65721 15.7362 2.65721L15.798 2.70034ZM15.798 7.30123C11.5403 7.30123 8.09738 10.7488 8.09738 15.0019C8.09738 19.2596 11.545 22.7025 15.798 22.7025C20.0558 22.7025 23.4987 19.2549 23.4987 15.0019C23.4987 10.7442 20.0511 7.30123 15.798 7.30123ZM15.798 20.0022C13.0339 20.0022 10.7977 17.766 10.7977 15.0019C10.7977 12.2378 13.0339 10.0016 15.798 10.0016C18.5621 10.0016 20.7983 12.2378 20.7983 15.0019C20.7983 17.766 18.5621 20.0022 15.798 20.0022ZM25.6093 6.99369C25.6093 7.99037 24.7982 8.79485 23.8062 8.79485C22.8095 8.79485 22.0051 7.98944 22.0051 6.99369C22.0051 6.00263 22.8152 5.19627 23.8062 5.19627C24.7973 5.19627 25.6093 6.00263 25.6093 6.99369Z" fill="white"/>
</svg>
