<svg width="17" height="28" viewBox="0 0 17 28" fill="none" xmlns="http://www.w3.org/2000/svg">
<path d="M16.798 0.968377C16.798 0.765872 16.7176 0.571661 16.5744 0.428468C16.4312 0.285275 16.237 0.20483 16.0345 0.20483H12.2168C10.2943 0.109067 8.41215 0.778088 6.98145 2.06572C5.55075 3.35334 4.68785 5.1549 4.58128 7.07675V11.1999H0.763547C0.561042 11.1999 0.366831 11.2804 0.223638 11.4235C0.080445 11.5667 0 11.7609 0 11.9635V15.9339C0 16.1364 0.080445 16.3306 0.223638 16.4738C0.366831 16.617 0.561042 16.6974 0.763547 16.6974H4.58128V26.929C4.58128 27.1315 4.66173 27.3257 4.80492 27.4689C4.94811 27.6121 5.14232 27.6925 5.34483 27.6925H9.92611C10.1286 27.6925 10.3228 27.6121 10.466 27.4689C10.6092 27.3257 10.6897 27.1315 10.6897 26.929V16.6974H14.6906C14.8604 16.6999 15.0262 16.6456 15.1617 16.5433C15.2972 16.441 15.3948 16.2964 15.4389 16.1324L16.5384 12.162C16.5688 12.0492 16.5729 11.9309 16.5504 11.8162C16.5278 11.7016 16.4793 11.5936 16.4085 11.5007C16.3377 11.4078 16.2465 11.3323 16.1419 11.2802C16.0374 11.228 15.9223 11.2006 15.8054 11.1999H10.6897V7.07675C10.7276 6.69876 10.9052 6.3485 11.1875 6.09436C11.4699 5.84023 11.8369 5.70046 12.2168 5.70237H16.0345C16.237 5.70237 16.4312 5.62192 16.5744 5.47873C16.7176 5.33554 16.798 5.14133 16.798 4.93882V0.968377Z" fill="white"/>
</svg>
