<svg width="24" height="30" viewBox="0 0 24 30" fill="none" xmlns="http://www.w3.org/2000/svg">
<path d="M0.0483704 10.7276C0.0483704 9.47254 0.312638 8.22777 0.840239 6.99235C1.36784 5.75692 2.12516 4.61207 3.11126 3.55594C4.09736 2.50074 5.39255 1.6435 6.99589 0.9861C8.59924 0.3287 10.3781 0 12.3298 0C15.4973 0 18.097 0.975828 20.129 2.92842C22.1609 4.88101 23.1769 7.18191 23.1769 9.83112C23.1769 13.2376 22.3159 16.0512 20.5921 18.2727C18.8683 20.4943 16.6431 21.6046 13.9135 21.6046C13.018 21.6046 12.1757 21.3945 11.3895 20.977C10.6013 20.5578 10.0485 20.0507 9.73102 19.4521L8.53574 24.1744C8.43676 24.5517 8.30696 24.9354 8.14728 25.3239C7.98853 25.7124 7.81391 26.0859 7.62435 26.4445C7.43478 26.8031 7.24615 27.1411 7.05659 27.4605C6.86703 27.7798 6.6784 28.0786 6.48884 28.3569C6.29927 28.6361 6.13492 28.8705 5.99579 29.0591C5.85665 29.2478 5.72685 29.4131 5.60732 29.5522L5.4271 29.7922C5.36733 29.8725 5.28796 29.9014 5.18804 29.8818C5.08906 29.8622 5.0293 29.8025 5.00875 29.7035C5.00875 29.6839 4.99381 29.5438 4.96393 29.2851C4.93405 29.0265 4.90417 28.7519 4.87428 28.4634C4.8444 28.1739 4.81452 27.8013 4.78464 27.3428C4.75476 26.8843 4.74542 26.4407 4.75476 26.0131C4.76503 25.5844 4.79398 25.111 4.8444 24.5927C4.89389 24.0745 4.9686 23.5973 5.06852 23.1593C5.28796 22.2227 6.02473 19.1048 7.27977 13.8054C7.12009 13.487 6.99029 13.1032 6.89131 12.655C6.79139 12.2067 6.7419 11.8435 6.7419 11.5643L6.71295 11.116C6.71295 9.84139 7.03605 8.78059 7.68411 7.93362C8.33124 7.0876 9.11377 6.66365 10.0298 6.66365C10.7675 6.66365 11.34 6.90737 11.748 7.39575C12.157 7.8832 12.3606 8.49671 12.3606 9.23348C12.3606 9.69198 12.2766 10.2541 12.1076 10.9218C11.9385 11.5895 11.7135 12.3561 11.4343 13.2227C11.156 14.0893 10.9562 14.7915 10.8366 15.3294C10.6377 16.2268 10.8124 17.0037 11.3596 17.6602C11.9087 18.3176 12.6398 18.6472 13.5568 18.6472C15.1312 18.6472 16.4301 17.7554 17.4573 15.9728C18.4827 14.1892 18.9953 12.033 18.9953 9.50335C18.9953 7.57131 18.3678 5.99224 17.1118 4.76708C15.8568 3.54193 14.104 2.92935 11.8536 2.92935C9.34349 2.92935 7.30592 3.73616 5.74273 5.34978C4.1786 6.9634 3.397 8.89545 3.397 11.1469C3.397 12.4813 3.77519 13.6065 4.53251 14.5235C4.79118 14.8223 4.87148 15.1417 4.77157 15.4797C4.73141 15.5796 4.67165 15.8084 4.59227 16.167C4.5129 16.5256 4.45314 16.7544 4.41298 16.8543C4.37376 17.0728 4.27385 17.2175 4.11417 17.2866C3.95449 17.3567 3.77519 17.352 3.57629 17.2717C2.3997 16.7936 1.51818 15.9718 0.929884 14.8064C0.341586 13.6411 0.0483704 12.2814 0.0483704 10.7276Z" fill="white"/>
</svg>
